<svg width="100" height="100" viewBox="0 0 100 100" fill="none" xmlns="http://www.w3.org/2000/svg">
<path d="M8.78906 64.2857H18.3014L23.6893 97.1289C23.9632 98.7984 25.1663 100 26.5625 100H44.1406C45.018 100 45.8496 99.5201 46.4066 98.6933C46.9627 97.8655 47.1855 96.7773 47.0139 95.7282L41.8839 64.4634C54.8676 65.7022 61.8752 72.5167 70.919 77.3521C71.801 82.1317 75.3082 85.7143 79.4922 85.7143C84.3384 85.7143 88.2812 80.9077 88.2812 75V57.1429C94.7433 57.1429 100 50.7347 100 42.8571C100 34.9795 94.7433 28.5714 88.2812 28.5714V10.7143C88.2812 4.80655 84.3384 0 79.4922 0C75.3082 0 71.801 3.58259 70.919 8.36217C62.323 12.7799 53.5866 21.4286 38.2812 21.4286H8.78906C3.94287 21.4286 0 26.2351 0 32.1429V53.5714C0 59.4792 3.94287 64.2857 8.78906 64.2857ZM28.9642 92.8571L24.2767 64.2857H35.8795L40.567 92.8571H28.9642ZM94.1406 42.8571C94.1406 46.7959 91.5123 50 88.2812 50V35.7143C91.5123 35.7143 94.1406 38.9183 94.1406 42.8571ZM76.5625 10.7143C76.5625 8.74535 77.877 7.14286 79.4922 7.14286C81.1073 7.14286 82.4219 8.74535 82.4219 10.7143V75C82.4219 76.9689 81.1073 78.5714 79.4922 78.5714C77.877 78.5714 76.5625 76.9689 76.5625 75V10.7143ZM70.7031 16.4546V69.2597C64.3608 65.9905 55.9448 58.2599 41.2109 57.2442V28.4691C55.9486 27.4535 64.3425 19.7331 70.7031 16.4546ZM5.85938 32.1429C5.85938 30.1739 7.17392 28.5714 8.78906 28.5714H11.9141V39.2857C11.9141 41.2584 13.2256 42.8571 14.8438 42.8571C16.4619 42.8571 17.7734 41.2584 17.7734 39.2857V28.5714H23.6328V39.2857C23.6328 41.2584 24.9443 42.8571 26.5625 42.8571C28.1807 42.8571 29.4922 41.2584 29.4922 39.2857V28.5714H35.3516V57.1429C32.4158 57.1429 11.6936 57.1429 8.78906 57.1429C7.17392 57.1429 5.85938 55.5404 5.85938 53.5714V32.1429Z" fill="black"/>
</svg>
