<svg width="25" height="25" viewBox="0 0 25 25" fill="none" xmlns="http://www.w3.org/2000/svg">
<g clip-path="url(#clip0)">
<path d="M22.8025 1.46484H13.2324V0.732422C13.2324 0.327873 12.9044 0 12.5 0C12.0955 0 11.7676 0.327873 11.7676 0.732422V1.46484H2.19727C0.985718 1.46484 0 2.45056 0 3.66211C0 4.61693 0.61245 5.43098 1.46484 5.7333V18.3592C1.46484 18.7637 1.79272 19.0916 2.19727 19.0916H11.7676V22.2746L7.87373 23.5725C7.48997 23.7005 7.28264 24.1154 7.41062 24.4989C7.53841 24.8827 7.95307 25.0902 8.33702 24.9622L12.4998 23.5746L16.6628 24.9622C17.0458 25.09 17.461 24.8835 17.5892 24.4989C17.7172 24.1154 17.5098 23.7005 17.1261 23.5725L13.2324 22.2746V19.0916H22.8025C23.2071 19.0916 23.535 18.7637 23.535 18.3592V5.7333C24.3876 5.43098 24.9998 4.61693 24.9998 3.66211C24.9998 2.45056 24.0143 1.46484 22.8025 1.46484ZM2.92969 17.6268V5.85938H22.0701V17.6268H2.92969ZM22.8025 4.39453H2.19727C1.79348 4.39453 1.46484 4.0659 1.46484 3.66211C1.46484 3.25813 1.79348 2.92969 2.19727 2.92969H22.8025C23.2065 2.92969 23.535 3.25813 23.535 3.66211C23.535 4.0659 23.2065 4.39453 22.8025 4.39453Z" fill="#F7B801"/>
<path d="M15.4295 14.6971H14.6973V9.52148C14.6973 9.11694 14.3692 8.78906 13.9648 8.78906C13.5603 8.78906 13.2324 9.11694 13.2324 9.52148V14.6971H11.7676V10.9863C11.7676 10.5818 11.4395 10.2539 11.0352 10.2539C10.6306 10.2539 10.3027 10.5818 10.3027 10.9863V14.6971H8.83789V12.451C8.83789 12.0466 8.50983 11.7188 8.10547 11.7188C7.70092 11.7188 7.37305 12.0466 7.37305 12.451V14.6971H5.9082V8.05664C5.9082 7.65209 5.58033 7.32422 5.17578 7.32422C4.77123 7.32422 4.44336 7.65209 4.44336 8.05664V15.4295C4.44336 15.834 4.77123 16.1619 5.17578 16.1619H15.4295C15.834 16.1619 16.1619 15.834 16.1619 15.4295C16.1619 15.0251 15.834 14.6971 15.4295 14.6971Z" fill="#F7B801"/>
<path d="M19.8728 7.32422H16.8943C16.4899 7.32422 16.1619 7.65209 16.1619 8.05664C16.1619 8.461 16.4899 8.78906 16.8943 8.78906H19.8728C20.2774 8.78906 20.6052 8.461 20.6052 8.05664C20.6052 7.65209 20.2774 7.32422 19.8728 7.32422Z" fill="#F7B801"/>
<path d="M19.8728 10.2539H16.8943C16.4899 10.2539 16.1619 10.5818 16.1619 10.9863C16.1619 11.3907 16.4899 11.7188 16.8943 11.7188H19.8728C20.2774 11.7188 20.6052 11.3907 20.6052 10.9863C20.6052 10.5818 20.2774 10.2539 19.8728 10.2539Z" fill="#F7B801"/>
</g>
<defs>
<clipPath id="clip0">
<rect width="25" height="25" fill="white"/>
</clipPath>
</defs>
</svg>
