<svg width="82" height="86" viewBox="0 0 82 86" fill="none" xmlns="http://www.w3.org/2000/svg">
<path opacity="0.1" d="M-19.0899 38.3839C-19.1151 38.2251 -19.1404 38.0664 -19.1638 37.9077C-19.9954 32.5028 -20.3767 27.3214 -20.1431 22.605C-20.1359 22.4485 -20.1278 22.292 -20.1188 22.1357C-19.9544 19.1629 -19.5175 16.3891 -18.8169 13.8686C-18.4353 12.5088 -17.9659 11.2252 -17.2399 10.3254C-16.2222 9.06476 -14.7548 8.62616 -13.2885 8.28562C-11.7651 7.93085 -10.1981 7.66042 -8.64598 7.3483C-8.09492 7.24101 -7.5494 7.12632 -7.00959 7.00422C-5.51935 6.66816 -4.05992 6.26125 -2.68367 5.68311C-0.983986 4.96073 0.591995 3.98719 1.93436 2.54592C2.0421 2.43191 2.14737 2.3145 2.25029 2.1937C2.35397 2.07477 2.45876 1.95312 2.55721 1.82822C2.65565 1.70332 2.75541 1.57991 2.85255 1.45352L3.00094 1.25361C3.05025 1.18976 3.0971 1.12014 3.14548 1.05623C3.288 0.861514 3.42467 0.655176 3.56364 0.457407L3.56876 0.449345C3.65934 0.315486 3.749 0.181563 3.83866 0.0476388C4.34001 -0.726219 4.81526 -1.53975 5.28697 -2.35634L5.58445 -2.87247C5.7387 -3.13646 5.89315 -3.40002 6.04766 -3.66301C6.13807 -3.81791 6.23071 -3.97126 6.32243 -4.12466C6.38893 -4.23637 6.45451 -4.34815 6.52325 -4.4583C6.8652 -5.01899 7.21707 -5.56637 7.58604 -6.08733C7.67374 -6.21158 7.76331 -6.33569 7.85085 -6.45715C8.5953 -7.47813 9.44776 -8.3378 10.3963 -9.02419L10.4085 -9.03315C10.8769 -9.36687 11.3786 -9.63672 11.9097 -9.84088C12.2135 -9.95984 12.5254 -10.0488 12.8484 -10.1131C13.7062 -10.2948 14.6424 -10.254 15.6239 -9.99212C17.5562 -9.46598 19.6194 -8.03068 21.5583 -7.46343C25.5559 -6.30232 28.4274 -8.94609 31.3528 -10.9749C32.0685 -11.4726 32.8031 -11.9352 33.5564 -12.363C34.055 -12.6478 34.5607 -12.9167 35.0734 -13.1696C38.1958 -14.7139 41.5811 -15.6784 45.1766 -16.0483C46.6446 -16.1995 48.2147 -16.2103 49.8295 -15.9153C50.4383 -15.8071 51.0581 -15.6482 51.6856 -15.4393C53.8201 -14.7294 55.9947 -13.3873 58.0785 -11.0673C59.802 -9.16791 61.3105 -6.73678 62.6389 -4.21729C63.1728 -3.20526 63.6809 -2.17245 64.1633 -1.11915C64.9203 0.531751 65.6069 2.21194 66.2172 3.90713C66.3552 4.28967 66.4898 4.67338 66.6161 5.05651C66.8397 5.71419 67.0517 6.37388 67.252 7.03555C68.3219 10.5525 69.0422 14.0547 69.3876 17.4185C69.7665 21.1446 69.6807 24.6812 70.237 28.4547C70.2604 28.6133 70.2857 28.7721 70.3109 28.9309C70.4023 29.498 70.5112 30.0766 70.6378 30.6668C71.6515 35.305 73.7764 39.9241 75.7131 44.537C75.781 44.6988 75.8489 44.8605 75.9159 45.0222C76.1286 45.5334 76.3375 46.0446 76.5426 46.5562C78.4969 51.4283 80.0616 56.6055 80.7653 61.3804C80.7896 61.5391 80.8116 61.6991 80.8327 61.8562C81.2362 64.8115 81.2975 67.5999 80.9039 70.0524C80.5004 72.57 79.6363 74.6279 78.6065 76.4176C78.1031 77.289 77.5581 78.0991 76.9715 78.8478C76.5495 79.3847 76.1087 79.8899 75.649 80.3634C71.9297 84.169 66.9622 85.8083 61.3929 84.9748C61.0982 84.9318 60.8019 84.8812 60.5043 84.823C60.192 84.7619 59.8785 84.6933 59.5639 84.6171C55.8892 83.7477 52.0618 81.962 48.2157 80.0321C46.9258 79.3812 45.6388 78.7305 44.3518 78.0798C43.7795 77.7912 43.2084 77.506 42.6386 77.2241C39.8458 75.85 37.0436 74.5902 34.2898 73.5959C33.6509 73.3643 33.0172 73.1495 32.3884 72.9513C30.1983 72.2459 28.0468 71.7741 25.9519 71.5399C25.1402 71.4533 24.3402 71.41 23.5517 71.41C23.1533 71.4102 22.7581 71.4237 22.3662 71.4506C18.3138 71.7114 14.7612 73.287 11.1616 74.7486C10.6416 74.9604 10.1202 75.1707 9.60026 75.3727C8.91278 75.6386 8.22169 75.8946 7.52131 76.126C3.16315 77.5781 -1.42373 76.2482 -6.91059 72.2423C-8.15518 71.3325 -9.44609 70.2497 -10.4961 68.6399C-11.5462 67.0301 -12.2187 65.0807 -12.8355 63.2067C-13.7119 60.5408 -14.5462 57.8414 -15.3067 55.1358C-15.3496 54.9758 -15.3925 54.8158 -15.4419 54.6554C-16.9901 49.1766 -18.2519 43.6771 -19.0899 38.3839Z" fill="#F7B801"/>
</svg>
