<svg width="25" height="25" viewBox="0 0 25 25" fill="none" xmlns="http://www.w3.org/2000/svg">
<path d="M12.5 0C5.6075 0 0 5.6075 0 12.5C0 19.3925 5.6075 25 12.5 25C14.3798 25 15.9091 23.4707 15.9091 21.5909C15.9091 19.7111 14.3798 18.1818 12.5 18.1818C11.8734 18.1818 11.3636 17.672 11.3636 17.0455C11.3636 16.4189 11.8734 15.9091 12.5 15.9091H23.6361C24.1765 15.9091 24.6421 15.5285 24.7497 14.9989C24.9158 14.1811 25 13.3404 25 12.5C25 5.6075 19.3925 0 12.5 0ZM22.6647 13.6364H12.5C10.6202 13.6364 9.09091 15.1657 9.09091 17.0455C9.09091 18.9252 10.6202 20.4545 12.5 20.4545C13.1266 20.4545 13.6364 20.9643 13.6364 21.5909C13.6364 22.2175 13.1266 22.7273 12.5 22.7273C6.86068 22.7273 2.27273 18.1393 2.27273 12.5C2.27273 6.86068 6.86068 2.27273 12.5 2.27273C18.1393 2.27273 22.7273 6.86068 22.7273 12.5C22.7273 12.8799 22.7064 13.2598 22.6647 13.6364Z" fill="#EA4C89"/>
<path d="M17.1525 9.55216C18.0939 9.55216 18.8571 8.78901 18.8571 7.84761C18.8571 6.90622 18.0939 6.14307 17.1525 6.14307C16.2111 6.14307 15.448 6.90622 15.448 7.84761C15.448 8.78901 16.2111 9.55216 17.1525 9.55216Z" fill="#EA4C89"/>
<path d="M12.5001 7.62503C13.4415 7.62503 14.2046 6.86188 14.2046 5.92049C14.2046 4.97909 13.4415 4.21594 12.5001 4.21594C11.5587 4.21594 10.7955 4.97909 10.7955 5.92049C10.7955 6.86188 11.5587 7.62503 12.5001 7.62503Z" fill="#EA4C89"/>
<path d="M7.84761 9.55204C8.78901 9.55204 9.55216 8.78888 9.55216 7.84749C9.55216 6.9061 8.78901 6.14294 7.84761 6.14294C6.90622 6.14294 6.14307 6.9061 6.14307 7.84749C6.14307 8.78888 6.90622 9.55204 7.84761 9.55204Z" fill="#EA4C89"/>
</svg>
