<svg width="100" height="100" viewBox="0 0 100 100" fill="none" xmlns="http://www.w3.org/2000/svg">
<g clip-path="url(#clip0)">
<path d="M91.2109 11.7188H82.0602C81.7795 9.2392 81.144 6.93741 80.201 5.05142C78.5721 1.79443 76.1703 0 73.4375 0C70.7047 0 68.3029 1.79443 66.674 5.05142C65.731 6.93741 65.0955 9.2392 64.8148 11.7188H58.6227C58.342 9.2392 57.7065 6.93741 56.7635 5.05142C55.1346 1.79443 52.7328 0 50 0C47.2672 0 44.8654 1.79443 43.2365 5.05142C42.2935 6.93741 41.658 9.2392 41.3773 11.7188H35.1852C34.9045 9.2392 34.269 6.93741 33.326 5.05142C31.6971 1.79443 29.2953 0 26.5625 0C23.8297 0 21.4279 1.79443 19.799 5.05142C18.856 6.93741 18.2205 9.2392 17.9398 11.7188H8.78906C3.94287 11.7188 0 15.6616 0 20.5078V97.0703C0 98.6885 1.31149 100 2.92969 100H97.0703C98.6885 100 100 98.6885 100 97.0703V20.5078C100 15.6616 96.0571 11.7188 91.2109 11.7188ZM71.9147 7.67212C72.6639 6.17447 73.336 5.85938 73.4375 5.85938C73.539 5.85938 74.2111 6.17447 74.9603 7.67212C75.515 8.7822 75.9232 10.183 76.1528 11.7188H70.7222C70.9518 10.183 71.36 8.7822 71.9147 7.67212ZM48.4772 7.67212C49.2264 6.17447 49.8985 5.85938 50 5.85938C50.1015 5.85938 50.7736 6.17447 51.5228 7.67212C52.0775 8.7822 52.4857 10.183 52.7153 11.7188H47.2847C47.5143 10.183 47.9225 8.7822 48.4772 7.67212ZM25.0397 7.67212C25.7889 6.17447 26.461 5.85938 26.5625 5.85938C26.664 5.85938 27.3361 6.17447 28.0853 7.67212C28.64 8.7822 29.0482 10.183 29.2778 11.7188H23.8472C24.0768 10.183 24.485 8.7822 25.0397 7.67212ZM8.78906 17.5781H17.9321C18.6935 24.5407 22.1497 29.4922 26.5625 29.4922C28.1807 29.4922 29.4952 28.1807 29.4952 26.5625C29.4952 24.9451 28.186 23.6336 26.5678 23.6336C26.0094 23.5474 24.4034 21.5218 23.835 17.5781H41.3689C42.131 24.5407 45.5864 29.4922 50 29.4922C51.6174 29.4922 52.932 28.1807 52.932 26.5625C52.932 24.9451 51.6235 23.6336 50.0053 23.6336C49.4461 23.5474 47.8409 21.5218 47.2725 17.5781H64.8064C65.5685 24.5407 69.0239 29.4922 73.4367 29.4922C75.0549 29.4922 76.3695 28.1807 76.3695 26.5625C76.3695 24.9451 75.0603 23.6336 73.4428 23.6336C72.8836 23.5474 71.2784 21.5218 70.71 17.5781H91.2109C92.8261 17.5781 94.1406 18.8927 94.1406 20.5078V35.5469H5.85938V20.5078C5.85938 18.8927 7.17392 17.5781 8.78906 17.5781ZM5.85938 94.1406V41.4062H94.1406V94.1406H5.85938Z" fill="black"/>
<path d="M76.3672 61.9141C76.3672 63.5323 77.6787 64.8438 79.2969 64.8438C80.9151 64.8438 82.2266 63.5323 82.2266 61.9141V50.1953C82.2266 48.5771 80.9151 47.2656 79.2969 47.2656H67.5781C65.9599 47.2656 64.6484 48.5771 64.6484 50.1953C64.6484 51.8135 65.9599 53.125 67.5781 53.125H72.2237L50 75.3487L40.3526 65.7021C39.209 64.5576 37.3535 64.5576 36.2099 65.7021L18.6317 83.2802C17.4873 84.4246 17.4873 86.2793 18.6317 87.4229C19.7754 88.5674 21.6301 88.5674 22.7745 87.4229L38.2812 71.917L47.9286 81.5636C49.0723 82.708 50.9277 82.708 52.0714 81.5636L76.3672 57.2685V61.9141Z" fill="black"/>
<path d="M14.6484 53.125H26.5625C28.1807 53.125 29.4922 51.8135 29.4922 50.1953C29.4922 48.5771 28.1807 47.2656 26.5625 47.2656H14.6484C13.0302 47.2656 11.7188 48.5771 11.7188 50.1953C11.7188 51.8135 13.0302 53.125 14.6484 53.125Z" fill="black"/>
<path d="M29.4922 61.9141C29.4922 60.2959 28.1807 58.9844 26.5625 58.9844H14.6484C13.0302 58.9844 11.7188 60.2959 11.7188 61.9141C11.7188 63.5323 13.0302 64.8438 14.6484 64.8438H26.5625C28.1807 64.8438 29.4922 63.5323 29.4922 61.9141Z" fill="black"/>
<path d="M85.3516 70.7031H73.4375C71.8193 70.7031 70.5078 72.0146 70.5078 73.6328C70.5078 75.251 71.8193 76.5625 73.4375 76.5625H85.3516C86.9698 76.5625 88.2812 75.251 88.2812 73.6328C88.2812 72.0146 86.9698 70.7031 85.3516 70.7031Z" fill="black"/>
<path d="M85.3516 82.4219H73.4375C71.8193 82.4219 70.5078 83.7334 70.5078 85.3516C70.5078 86.9698 71.8193 88.2812 73.4375 88.2812H85.3516C86.9698 88.2812 88.2812 86.9698 88.2812 85.3516C88.2812 83.7334 86.9698 82.4219 85.3516 82.4219Z" fill="black"/>
</g>
<defs>
<clipPath id="clip0">
<rect width="100" height="100" fill="white"/>
</clipPath>
</defs>
</svg>
