<svg width="100" height="100" viewBox="0 0 100 100" fill="none" xmlns="http://www.w3.org/2000/svg">
<path d="M85.1562 17.5781C90.0024 17.5781 93.9453 13.6353 93.9453 8.78906C93.9453 3.94287 90.0024 0 85.1562 0C80.3101 0 76.3672 3.94287 76.3672 8.78906C76.3672 10.144 76.6762 11.4288 77.2263 12.5763L65.506 24.2966C64.3585 23.7465 63.0737 23.4375 61.7188 23.4375C59.3536 23.4375 57.2052 24.3782 55.6236 25.9033L47.0009 21.5919C47.0451 21.2364 47.0703 20.8755 47.0703 20.5078C47.0703 15.6616 43.1274 11.7188 38.2812 11.7188C33.4351 11.7188 29.4922 15.6616 29.4922 20.5078C29.4922 21.8628 29.8012 23.1476 30.3513 24.295L18.631 36.0153C17.4835 35.4652 16.1987 35.1562 14.8438 35.1562C9.99756 35.1562 6.05469 39.0991 6.05469 43.9453C6.05469 48.7915 9.99756 52.7344 14.8438 52.7344C19.6899 52.7344 23.6328 48.7915 23.6328 43.9453C23.6328 42.5903 23.3238 41.3055 22.7737 40.1581L34.494 28.4378C35.6415 28.9879 36.9263 29.2969 38.2812 29.2969C40.6464 29.2969 42.7948 28.3562 44.3764 26.8311L52.9991 31.1424C52.9549 31.498 52.9297 31.8588 52.9297 32.2266C52.9297 37.0728 56.8726 41.0156 61.7188 41.0156C66.5649 41.0156 70.5078 37.0728 70.5078 32.2266C70.5078 30.8716 70.1988 29.5868 69.6487 28.4393L81.369 16.7191C82.5165 17.2691 83.8013 17.5781 85.1562 17.5781ZM85.1562 5.85938C86.7714 5.85938 88.0859 7.17392 88.0859 8.78906C88.0859 10.4042 86.7714 11.7188 85.1562 11.7188C83.5411 11.7188 82.2266 10.4042 82.2266 8.78906C82.2266 7.17392 83.5411 5.85938 85.1562 5.85938ZM14.8438 46.875C13.2286 46.875 11.9141 45.5605 11.9141 43.9453C11.9141 42.3302 13.2286 41.0156 14.8438 41.0156C16.4589 41.0156 17.7734 42.3302 17.7734 43.9453C17.7734 45.5605 16.4589 46.875 14.8438 46.875ZM38.2812 23.4375C36.6661 23.4375 35.3516 22.123 35.3516 20.5078C35.3516 18.8927 36.6661 17.5781 38.2812 17.5781C39.8964 17.5781 41.2109 18.8927 41.2109 20.5078C41.2109 22.123 39.8964 23.4375 38.2812 23.4375ZM61.7188 35.1562C60.1036 35.1562 58.7891 33.8417 58.7891 32.2266C58.7891 30.6114 60.1036 29.2969 61.7188 29.2969C63.3339 29.2969 64.6484 30.6114 64.6484 32.2266C64.6484 33.8417 63.3339 35.1562 61.7188 35.1562Z" fill="black"/>
<path d="M2.92969 100H97.0703C98.6885 100 100 98.6885 100 97.0703C100 95.4521 98.6885 94.1406 97.0703 94.1406H93.9453V32.2266C93.9453 30.6084 92.6338 29.2969 91.0156 29.2969H79.2969C77.6787 29.2969 76.3672 30.6084 76.3672 32.2266V94.1406H70.5078V55.6641C70.5078 54.0459 69.1963 52.7344 67.5781 52.7344H55.8594C54.2412 52.7344 52.9297 54.0459 52.9297 55.6641V94.1406H47.0703V43.9453C47.0703 42.3271 45.7588 41.0156 44.1406 41.0156H32.4219C30.8037 41.0156 29.4922 42.3271 29.4922 43.9453V94.1406H23.6328V67.3828C23.6328 65.7646 22.3213 64.4531 20.7031 64.4531H8.98438C7.36618 64.4531 6.05469 65.7646 6.05469 67.3828V94.1406H2.92969C1.31149 94.1406 0 95.4521 0 97.0703C0 98.6885 1.31149 100 2.92969 100ZM82.2266 35.1562H88.0859V94.1406H82.2266V35.1562ZM58.7891 58.5938H64.6484V94.1406H58.7891V58.5938ZM35.3516 46.875H41.2109V94.1406H35.3516V46.875ZM11.9141 70.3125H17.7734V94.1406H11.9141V70.3125Z" fill="black"/>
</svg>
