<svg width="100" height="100" viewBox="0 0 100 100" fill="none" xmlns="http://www.w3.org/2000/svg">
<path d="M89.2988 71.2478C90.5061 69.4057 91.2109 67.2061 91.2109 64.8438C91.2109 60.3992 88.7236 56.5246 85.068 54.5387C84.4481 49.7014 82.7943 44.9418 80.2338 40.675C77.6777 36.4158 74.2684 32.7203 70.3227 29.9094C69.4176 24.2393 65.2473 19.6477 59.8066 18.1227C61.0139 16.2807 61.7188 14.0811 61.7188 11.7188C61.7188 5.25703 56.4617 0 50 0C43.5383 0 38.2812 5.25703 38.2812 11.7188C38.2812 14.0811 38.9861 16.2807 40.1934 18.1229C34.7527 19.6477 30.5824 24.2395 29.6773 29.9096C25.7316 32.7203 22.3223 36.416 19.7662 40.6752C17.2057 44.942 15.552 49.7014 14.932 54.5389C11.2764 56.5246 8.78906 60.3992 8.78906 64.8438C8.78906 67.2061 9.49395 69.4057 10.7012 71.2478C4.53594 72.9758 0 78.642 0 85.3516V97.0703C0 98.6883 1.31172 100 2.92969 100H38.0859C39.7039 100 41.0156 98.6883 41.0156 97.0703V92.9727C43.766 93.6178 46.7715 93.9453 50 93.9453C53.2283 93.9453 56.234 93.6178 58.9844 92.9727V97.0703C58.9844 98.6883 60.2961 100 61.9141 100H97.0703C98.6883 100 100 98.6883 100 97.0703V85.3516C100 78.642 95.4641 72.9758 89.2988 71.2478ZM85.3516 64.8438C85.3516 68.0746 82.723 70.7031 79.4922 70.7031C76.2613 70.7031 73.6328 68.0746 73.6328 64.8438C73.6328 61.6129 76.2613 58.9844 79.4922 58.9844C82.723 58.9844 85.3516 61.6129 85.3516 64.8438ZM50 5.85938C53.2309 5.85938 55.8594 8.48789 55.8594 11.7188C55.8594 14.9496 53.2309 17.5781 50 17.5781C46.7691 17.5781 44.1406 14.9496 44.1406 11.7188C44.1406 8.48789 46.7691 5.85938 50 5.85938ZM35.3516 32.2266C35.3516 27.3803 39.2943 23.4375 44.1406 23.4375H55.8594C60.7057 23.4375 64.6484 27.3803 64.6484 32.2266V41.0156H35.3516V32.2266ZM20.5078 58.9844C23.7387 58.9844 26.3672 61.6129 26.3672 64.8438C26.3672 68.0746 23.7387 70.7031 20.5078 70.7031C17.277 70.7031 14.6484 68.0746 14.6484 64.8438C14.6484 61.6129 17.277 58.9844 20.5078 58.9844ZM35.1562 94.1406H5.85938V85.3516C5.85938 80.5053 9.80215 76.5625 14.6484 76.5625H26.3672C31.2135 76.5625 35.1562 80.5053 35.1562 85.3516V94.1406ZM58.9844 85.3516V86.9146C56.3416 87.6832 53.2773 88.0859 50 88.0859C46.7225 88.0859 43.6584 87.6832 41.0156 86.9146V85.3516C41.0156 78.642 36.4797 72.9758 30.3145 71.2478C31.5217 69.4057 32.2266 67.2061 32.2266 64.8438C32.2266 58.5816 27.2893 53.4512 21.1031 53.14C22.3031 47.3389 25.2838 41.8809 29.4922 37.7049V43.9453C29.4922 45.5633 30.8039 46.875 32.4219 46.875H67.5781C69.1961 46.875 70.5078 45.5633 70.5078 43.9453V37.7049C74.7162 41.8809 77.6969 47.3389 78.8969 53.14C72.7107 53.4512 67.7734 58.5816 67.7734 64.8438C67.7734 67.2061 68.4783 69.4057 69.6855 71.2478C63.5203 72.9758 58.9844 78.642 58.9844 85.3516ZM94.1406 94.1406H64.8438V85.3516C64.8438 80.5053 68.7865 76.5625 73.6328 76.5625H85.3516C90.1979 76.5625 94.1406 80.5053 94.1406 85.3516V94.1406Z" fill="black"/>
<path d="M60.8606 53.7878C59.7167 52.6437 57.8616 52.6437 56.7175 53.7878L47.0704 63.4351L43.2825 59.6472C42.1386 58.503 40.2835 58.503 39.1394 59.6472C37.9952 60.7913 37.9952 62.6462 39.1394 63.7903L44.9987 69.6497C46.1427 70.7936 47.9977 70.7938 49.1419 69.6497L60.8606 57.931C62.0048 56.787 62.0048 54.9319 60.8606 53.7878Z" fill="black"/>
</svg>
