<svg width="100" height="100" viewBox="0 0 100 100" fill="none" xmlns="http://www.w3.org/2000/svg">
<path d="M97.0703 70.7031H87.8906V14.6484C87.8906 13.0302 86.5791 11.7188 84.9609 11.7188H76.1719V8.78906C76.1719 3.94287 72.229 0 67.3828 0C62.5366 0 58.5938 3.94287 58.5938 8.78906V11.7188H52.7344V8.78906C52.7344 3.94287 48.7915 0 43.9453 0C39.0991 0 35.1562 3.94287 35.1562 8.78906V11.7188H29.2969V8.78906C29.2969 3.94287 25.354 0 20.5078 0C15.6616 0 11.7188 3.94287 11.7188 8.78906V11.7188H2.92969C1.31149 11.7188 0 13.0302 0 14.6484V97.0703C0 98.6885 1.31149 100 2.92969 100H73.2422C74.8604 100 76.1719 98.6885 76.1719 97.0703V88.2812H87.8906C94.4542 88.2812 100 82.9147 100 76.5625V73.6328C100 72.0146 98.6885 70.7031 97.0703 70.7031ZM64.4531 8.78906C64.4531 7.17392 65.7677 5.85938 67.3828 5.85938C68.998 5.85938 70.3125 7.17392 70.3125 8.78906V11.7188H64.4531V8.78906ZM41.0156 8.78906C41.0156 7.17392 42.3302 5.85938 43.9453 5.85938C45.5605 5.85938 46.875 7.17392 46.875 8.78906V11.7188H41.0156V8.78906ZM46.875 17.5781V20.5078C46.875 22.126 48.1865 23.4375 49.8047 23.4375C51.4229 23.4375 52.7344 22.126 52.7344 20.5078V17.5781H70.3125V20.5078C70.3125 22.126 71.624 23.4375 73.2422 23.4375C74.8604 23.4375 76.1719 22.126 76.1719 20.5078V17.5781H82.0312V70.7031H31.7261C30.7755 70.7031 29.8836 71.1647 29.3343 71.9414C28.7857 72.7173 28.6476 73.7122 28.9642 74.6086C29.1847 75.2335 29.2969 75.8911 29.2969 76.5625C29.2969 79.7928 26.6678 82.4219 23.4375 82.4219C20.2065 82.4219 17.5781 79.7928 17.5781 76.5625V17.5781H23.4375V20.5078C23.4375 22.126 24.749 23.4375 26.3672 23.4375C27.9846 23.4375 29.2969 22.126 29.2969 20.5078V17.5781H46.875ZM17.5781 8.78906C17.5781 7.17392 18.8927 5.85938 20.5078 5.85938C22.123 5.85938 23.4375 7.17392 23.4375 8.78906V11.7188H17.5781V8.78906ZM70.3125 94.1406H5.85938V17.5781H11.7188V76.5625C11.7188 83.0246 16.9754 88.2812 23.4375 88.2812H70.3125V94.1406ZM87.8906 82.4219C85.041 82.4219 36.3991 82.4219 33.58 82.4219C34.5802 80.6969 35.1562 78.6942 35.1562 76.5602H94.1406C94.1406 79.6822 91.2201 82.4219 87.8906 82.4219Z" fill="black"/>
<path d="M24.2958 30.3505C23.1514 31.4941 23.1514 33.3488 24.2958 34.4932L30.1552 40.3526C31.5689 41.7663 33.9531 41.3795 34.8473 39.5912L40.7066 27.8725C41.4299 26.4252 40.8432 24.6658 39.3967 23.9418C37.9494 23.2185 36.1893 23.8052 35.466 25.2518L31.4239 33.3351L28.4386 30.3505C27.2949 29.2061 25.4395 29.2061 24.2958 30.3505Z" fill="black"/>
<path d="M39.3959 47.3793C37.9486 46.656 36.1893 47.2427 35.4652 48.6893L31.424 56.7726L28.4386 53.788C27.2949 52.6436 25.4395 52.6436 24.2958 53.788C23.1514 54.9316 23.1514 56.7863 24.2958 57.9307L30.1552 63.7901C31.5681 65.2038 33.9531 64.817 34.8465 63.0287L40.7059 51.31C41.4299 49.8634 40.8432 48.1033 39.3959 47.3793Z" fill="black"/>
<path d="M49.8047 35.3516H73.2422C74.8604 35.3516 76.1719 34.0401 76.1719 32.4219C76.1719 30.8037 74.8604 29.4922 73.2422 29.4922H49.8047C48.1865 29.4922 46.875 30.8037 46.875 32.4219C46.875 34.0401 48.1865 35.3516 49.8047 35.3516Z" fill="black"/>
<path d="M49.8047 47.0703H73.2422C74.8604 47.0703 76.1719 45.7588 76.1719 44.1406C76.1719 42.5224 74.8604 41.2109 73.2422 41.2109H49.8047C48.1865 41.2109 46.875 42.5224 46.875 44.1406C46.875 45.7588 48.1865 47.0703 49.8047 47.0703Z" fill="black"/>
<path d="M49.8047 58.7891H73.2422C74.8604 58.7891 76.1719 57.4776 76.1719 55.8594C76.1719 54.2412 74.8604 52.9297 73.2422 52.9297H49.8047C48.1865 52.9297 46.875 54.2412 46.875 55.8594C46.875 57.4776 48.1865 58.7891 49.8047 58.7891Z" fill="black"/>
</svg>
