<svg width="25" height="25" viewBox="0 0 25 25" fill="none" xmlns="http://www.w3.org/2000/svg">
<path d="M25 4.88866C25 3.58132 24.5996 2.35268 23.8722 1.42814C22.4028 -0.438934 20.0339 -0.473794 18.5259 1.31457C18.4918 1.34987 18.4586 1.38779 18.4267 1.42814L9.17619 13.1852L6.5731 9.87687C5.0718 7.96924 2.62896 7.96924 1.12766 9.87687C0.400382 10.8014 0 12.0303 0 13.3374C0 14.6445 0.400382 15.8732 1.12766 16.7977L6.44665 23.5578C6.4489 23.5607 6.45062 23.564 6.45304 23.5668C7.18049 24.4911 8.1472 25 9.17584 25C10.076 25 10.9287 24.6104 11.6151 23.8935C11.7101 23.7944 11.8017 23.6883 11.89 23.5767C11.8928 23.5732 11.8959 23.5703 11.8987 23.5668L23.8723 8.34897C23.8868 8.33055 23.8996 8.31038 23.9134 8.2913C24.6134 7.37377 25 6.16991 25 4.88866ZM2.95758 12.2026C3.44991 11.5767 4.25119 11.5767 4.74352 12.2026L8.26157 16.6738C8.29314 16.7139 8.32609 16.7514 8.3599 16.7867C8.59709 17.0325 8.8869 17.1555 9.17653 17.1555C9.46617 17.1555 9.75598 17.0325 9.99317 16.7867C10.027 16.7517 10.0599 16.7139 10.0915 16.6738L20.257 3.75386C20.2572 3.75364 20.2575 3.7532 20.2577 3.75276C20.7502 3.12858 21.5508 3.12836 22.0428 3.75386C22.2813 4.05707 22.4128 4.46004 22.4128 4.88888C22.4128 5.31706 22.2819 5.71959 22.0438 6.02258C22.0436 6.02302 22.0433 6.02324 22.0429 6.02368L10.0691 21.2409C9.8305 21.5441 9.51344 21.7111 9.17602 21.7111C8.83877 21.7111 8.52171 21.5441 8.28313 21.2409L2.95758 14.4722C2.71901 14.169 2.58756 13.7662 2.58756 13.3374C2.58756 12.9086 2.71901 12.5058 2.95758 12.2026Z" fill="#2E5BFF"/>
</svg>
