<svg width="100" height="100" viewBox="0 0 100 100" fill="none" xmlns="http://www.w3.org/2000/svg">
<path d="M50 0C22.4299 0 0 22.4301 0 49.9996C0 77.5692 22.4299 100 50 100C77.5701 100 100 77.5699 100 49.9996C100 22.4294 77.5694 0 50 0ZM50 89.4698C28.2363 89.4698 10.5302 71.7635 10.5302 49.9996C10.5302 28.2365 28.2363 10.5302 50 10.5302C71.7637 10.5302 89.4698 28.2365 89.4698 49.9996C89.4691 71.7635 71.7637 89.4698 50 89.4698Z" fill="black"/>
<path d="M74.5583 25.4424C72.5014 23.3869 69.1683 23.3869 67.1121 25.4424L49.8503 42.7035L32.8399 25.6923C30.7837 23.6368 27.4506 23.6368 25.3937 25.6923C23.3375 27.7492 23.3375 31.0824 25.3937 33.1386L42.4041 50.1491L25.6436 66.9097C23.5874 68.9666 23.5874 72.2998 25.6436 74.356C26.6721 75.3838 28.0192 75.8976 29.3671 75.8976C30.7142 75.8976 32.0621 75.3838 33.0905 74.356L49.8503 57.5961L66.8608 74.6066C67.8892 75.6344 69.2364 76.1483 70.5842 76.1483C71.9314 76.1483 73.2792 75.6344 74.3077 74.6066C76.3639 72.5497 76.3639 69.2166 74.3077 67.1604L57.2973 50.1498L74.5583 32.8887C76.6145 30.8318 76.6145 27.4986 74.5583 25.4424Z" fill="black"/>
</svg>
