<svg width="100" height="100" viewBox="0 0 100 100" fill="none" xmlns="http://www.w3.org/2000/svg">
<path d="M100 19.5546C100 14.3253 98.3985 9.41073 95.4887 5.71254C89.6111 -1.75574 80.1358 -1.89517 74.1037 5.25827C73.967 5.39946 73.8346 5.55118 73.7069 5.71254L36.7048 52.7409L26.2924 39.5075C20.2872 31.877 10.5159 31.877 4.51064 39.5075C1.60153 43.2057 0 48.1211 0 53.3496C0 58.5781 1.60153 63.4926 4.51064 67.1908L25.7866 94.2313C25.7956 94.2427 25.8025 94.2558 25.8122 94.2673C28.722 97.9646 32.5888 100 36.7034 100C40.3039 100 43.7146 98.4416 46.4602 95.5739C46.8404 95.1775 47.2068 94.7531 47.5601 94.3067C47.5711 94.2927 47.5836 94.2813 47.5946 94.2673L95.4894 33.3959C95.5473 33.3222 95.5984 33.2415 95.6536 33.1652C98.4537 29.4951 100 24.6797 100 19.5546ZM11.8303 48.8104C13.7996 46.3066 17.0048 46.3066 18.9741 48.8104L33.0463 66.6953C33.1726 66.8558 33.3044 67.0057 33.4396 67.1469C34.3884 68.13 35.5476 68.622 36.7061 68.622C37.8647 68.622 39.0239 68.13 39.9727 67.1469C40.1079 67.0066 40.2397 66.8558 40.366 66.6953L81.028 15.0154C81.0287 15.0146 81.0301 15.0128 81.0307 15.0111C83.0007 12.5143 86.2031 12.5134 88.171 15.0154C89.1253 16.2283 89.6511 17.8402 89.6511 19.5555C89.6511 21.2682 89.1274 22.8784 88.1752 24.0903C88.1745 24.0921 88.1731 24.093 88.1717 24.0947L40.2763 84.9635C39.322 86.1763 38.0537 86.8446 36.7041 86.8446C35.3551 86.8446 34.0868 86.1763 33.1325 84.9635L11.8303 57.8888C10.876 56.6759 10.3503 55.0649 10.3503 53.3496C10.3503 51.6342 10.876 50.0232 11.8303 48.8104Z" fill="black"/>
</svg>
