<svg width="100" height="100" viewBox="0 0 100 100" fill="none" xmlns="http://www.w3.org/2000/svg">
<path d="M50.0011 63.086C53.5999 63.086 56.5178 60.168 56.5178 56.5692V26.8567C56.5178 23.2573 53.5999 20.3398 50.0011 20.3398C46.4023 20.3398 43.4844 23.2573 43.4844 26.8567V56.5697C43.4844 60.1685 46.4023 63.086 50.0011 63.086Z" fill="black"/>
<path d="M50.0031 66.6313C48.2878 66.6313 46.6034 67.3247 45.3939 68.5394C44.1797 69.7489 43.4863 71.4276 43.4863 73.1428C43.4863 74.858 44.1797 76.542 45.3939 77.7515C46.6034 78.9662 48.2878 79.6596 50.0031 79.6596C51.7183 79.6596 53.397 78.9662 54.6117 77.7515C55.8207 76.542 56.5198 74.858 56.5198 73.1428C56.5198 71.4276 55.8207 69.7489 54.6117 68.5394C53.397 67.3247 51.7183 66.6313 50.0031 66.6313Z" fill="black"/>
<path d="M50.0003 0C22.4304 0 0 22.4298 0 50C0 77.5702 22.4299 100 50.0003 100C77.5706 100 100 77.5702 100 50C100 22.4298 77.5706 0 50.0003 0ZM50.0003 92.1798C26.7419 92.1798 7.8202 73.2582 7.8202 50C7.8202 26.7418 26.7419 7.82016 50.0003 7.82016C73.258 7.82016 92.1798 26.7418 92.1798 50C92.1798 73.2582 73.2586 92.1798 50.0003 92.1798Z" fill="black"/>
</svg>
