<svg width="100" height="100" viewBox="0 0 100 100" fill="none" xmlns="http://www.w3.org/2000/svg">
<path d="M50 0C22.4299 0 0 22.4299 0 50C0 77.5701 22.4299 100 50 100C77.5701 100 100 77.5701 100 50C100 22.4299 77.5694 0 50 0ZM50 89.4691C28.2363 89.4691 10.5302 71.7637 10.5302 50C10.5302 28.2363 28.2363 10.5302 50 10.5302C71.7637 10.5302 89.4698 28.2363 89.4698 50C89.4698 71.7637 71.7637 89.4691 50 89.4691Z" fill="black"/>
<path d="M70.8485 50.5557H50.3505V32.8005C50.3505 29.892 47.9938 27.5354 45.0854 27.5354C42.177 27.5354 39.8203 29.892 39.8203 32.8005V55.8208C39.8203 58.7292 42.177 61.0859 45.0854 61.0859H70.8485C73.7569 61.0859 76.1136 58.7292 76.1136 55.8208C76.1136 52.9124 73.7562 50.5557 70.8485 50.5557Z" fill="black"/>
</svg>
