<svg width="100" height="100" viewBox="0 0 100 100" fill="none" xmlns="http://www.w3.org/2000/svg">
<path d="M82.3866 29.2048L50.0036 57.7408L17.6134 29.2044C16.3237 28.0682 14.3578 28.193 13.222 29.4819C12.0866 30.7712 12.2102 32.7371 13.4999 33.8733L47.9472 64.2221C48.535 64.7398 49.2697 64.9987 50.004 64.9987C50.7382 64.9987 51.4733 64.7398 52.0611 64.2217L86.5014 33.8729C87.7903 32.7371 87.9143 30.7708 86.7785 29.4815C85.6418 28.1935 83.6764 28.069 82.3866 29.2048Z" fill="black"/>
<path d="M90.6663 15.983H9.33374C4.18732 15.983 0 20.1699 0 25.3168V74.6827C0 79.8295 4.18732 84.0164 9.33374 84.0164H90.6663C95.8127 84.0164 100 79.8295 100 74.6827V25.3168C100 20.1704 95.8127 15.983 90.6663 15.983ZM93.7775 74.6827C93.7775 76.398 92.382 77.7939 90.6663 77.7939H9.33374C7.61799 77.7939 6.22249 76.398 6.22249 74.6827V25.3168C6.22249 23.6014 7.61799 22.2055 9.33374 22.2055H90.6663C92.382 22.2055 93.7775 23.6014 93.7775 25.3168V74.6827Z" fill="black"/>
</svg>
