<svg width="100" height="100" viewBox="0 0 100 100" fill="none" xmlns="http://www.w3.org/2000/svg">
<g clip-path="url(#clip0)">
<path d="M99.5691 3.01578C99.418 1.65393 98.343 0.578187 96.9804 0.427125C73.7962 -2.1478 54.0331 7.1265 37.9121 23.7212C33.2986 28.4705 29.297 33.4975 25.8814 38.349C20.1006 38.114 13.6911 40.7294 9.14704 45.2735L0.859993 53.5605C-0.0776595 54.4982 -0.268394 55.9493 0.3946 57.0975C1.05759 58.2457 2.40876 58.805 3.6905 58.4624C5.61311 57.9459 8.73734 57.3455 11.7387 57.2058C12.8359 57.1547 13.7476 57.1707 14.5052 57.2287C12.6764 60.7459 11.2749 63.6924 10.8102 64.4301C10.0824 65.5883 10.251 67.0951 11.2184 68.0625L16.0135 72.8575C9.03489 82.3752 8.91969 87.2496 8.9441 87.9401C8.99522 89.4026 10.1358 90.7729 12.0248 90.7729C13.6606 90.7729 18.3519 90.0786 26.8922 83.7363L31.936 88.7801C32.9103 89.7544 34.4324 89.9176 35.592 89.173C36.3809 88.6656 39.1542 87.3229 42.4799 85.5849C42.5348 88.0637 42.1983 91.7037 41.4682 96.6376C41.0532 99.4361 44.4551 101.121 46.438 99.1385L54.725 90.8515C58.9983 86.5782 61.4763 80.2314 61.2932 74.2774C66.4041 70.7061 71.721 66.4931 76.6855 61.6248C93.1223 45.5062 102.111 25.8925 99.5691 3.01578ZM93.9645 6.03091C94.4322 12.3481 93.9333 18.4714 92.4799 24.3972C88.8704 23.2604 85.3418 21.0273 82.155 17.8412C78.9568 14.6422 76.7191 11.0991 75.5869 7.47669C81.5103 6.04465 87.6375 5.55942 93.9645 6.03091ZM11.3565 51.351L13.2898 49.417C15.6282 47.0793 18.6693 45.3955 21.6936 44.6387C20.1135 47.1465 18.7051 49.5414 17.4631 51.7516C15.5443 51.3282 13.4111 51.2496 11.3565 51.351ZM16.9008 65.4586C17.5348 64.2073 18.3015 62.6387 19.7092 59.9791L23.5658 63.8365C22.1307 65.3762 20.8353 66.8387 19.668 68.225L16.9008 65.4586ZM31.228 64.3378C33.3627 62.2039 35.4097 61.814 37.9526 61.7591C37.8969 64.2371 37.4994 66.3535 35.3716 68.4813C26.2758 77.5771 20.0411 81.639 16.3126 83.4517C18.152 79.6515 22.2246 73.3412 31.228 64.3378ZM34.5232 83.0809L31.5019 80.0589C32.8813 78.8871 34.3393 77.5878 35.8774 76.1473L39.9828 80.2527C37.2835 81.6939 36.1574 82.2364 34.5232 83.0809ZM50.5808 86.7079L48.2355 89.054C48.4254 86.212 48.3598 84.1414 48.0913 82.5438C50.2458 81.3307 52.5858 79.9552 55.0378 78.4163C54.339 81.5139 52.7681 84.5214 50.5808 86.7079ZM45.3165 77.3001L40.0636 72.0465C43.9508 67.7695 43.8059 63.6481 43.8059 58.8332C43.8059 57.215 42.4944 55.9035 40.8762 55.9035C36.3779 55.9035 32.049 55.6624 27.6628 59.6465L22.6465 54.6302C36.3443 30.6105 52.1776 15.4036 69.967 9.14142C71.3754 13.6985 74.1167 18.0892 78.0122 21.9847C81.8895 25.8628 86.2596 28.5971 90.7968 30.0109C84.498 47.7027 69.2949 63.526 45.3165 77.3001Z" fill="black"/>
<path d="M73.8664 26.1263C68.1543 20.4149 58.8601 20.4149 53.1488 26.1263C47.4374 31.8384 47.4374 41.1326 53.1488 46.8439C58.8601 52.5553 68.1543 52.556 73.8664 46.8439C79.5777 41.1326 79.5777 31.8384 73.8664 26.1263ZM69.7229 42.7004C66.2957 46.1275 60.7186 46.1275 57.2923 42.7004C53.8652 39.2733 53.8652 33.6969 57.2923 30.2698C60.7186 26.8435 66.295 26.8427 69.7229 30.2698C73.15 33.6969 73.15 39.2733 69.7229 42.7004Z" fill="black"/>
</g>
<defs>
<clipPath id="clip0">
<rect width="100" height="100" fill="white"/>
</clipPath>
</defs>
</svg>
