<svg width="25" height="25" viewBox="0 0 25 25" fill="none" xmlns="http://www.w3.org/2000/svg">
<g clip-path="url(#clip0)">
<path d="M24.892 0.753945C24.8543 0.413483 24.5855 0.144547 24.2449 0.106781C18.4488 -0.536949 13.508 1.78162 9.47779 5.9303C8.32442 7.11762 7.32401 8.37438 6.47009 9.58726C5.0249 9.52851 3.42253 10.1824 2.28652 11.3184L0.214754 13.3901C-0.019659 13.6245 -0.0673427 13.9873 0.0984059 14.2744C0.264154 14.5614 0.601946 14.7012 0.92238 14.6156C1.40303 14.4865 2.18409 14.3364 2.93444 14.3015C3.20872 14.2887 3.43665 14.2927 3.62605 14.3072C3.16886 15.1865 2.81848 15.9231 2.70232 16.1075C2.52036 16.3971 2.56251 16.7738 2.80436 17.0156L4.00313 18.2144C2.25848 20.5938 2.22968 21.8124 2.23578 21.985C2.24856 22.3507 2.53371 22.6932 3.00597 22.6932C3.4149 22.6932 4.58773 22.5197 6.72282 20.9341L7.98377 22.195C8.22733 22.4386 8.60785 22.4794 8.89777 22.2933C9.09499 22.1664 9.78831 21.8307 10.6197 21.3962C10.6335 22.0159 10.5493 22.9259 10.3668 24.1594C10.263 24.859 11.1135 25.2802 11.6093 24.7846L13.681 22.7129C14.7493 21.6446 15.3688 20.0578 15.3231 18.5693C16.6008 17.6765 17.93 16.6233 19.1711 15.4062C23.2803 11.3765 25.5276 6.47313 24.892 0.753945ZM23.4909 1.50773C23.6078 3.08701 23.4831 4.61785 23.1197 6.09929C22.2174 5.81509 21.3352 5.25681 20.5385 4.4603C19.7389 3.66055 19.1795 2.77478 18.8965 1.86917C20.3773 1.51116 21.9091 1.38985 23.4909 1.50773ZM2.83888 12.8378L3.32221 12.3542C3.90681 11.7698 4.66708 11.3489 5.42315 11.1597C5.02814 11.7866 4.67604 12.3853 4.36553 12.9379C3.88583 12.832 3.35253 12.8124 2.83888 12.8378ZM4.22495 16.3646C4.38345 16.0518 4.57514 15.6597 4.92705 14.9948L5.89121 15.9591C5.53244 16.344 5.20857 16.7097 4.91675 17.0562L4.22495 16.3646ZM7.80676 16.0845C8.34044 15.551 8.85218 15.4535 9.4879 15.4398C9.47398 16.0593 9.3746 16.5884 8.84264 17.1203C6.5687 19.3943 5.01002 20.4097 4.0779 20.8629C4.53776 19.9129 5.5559 18.3353 7.80676 16.0845ZM8.63055 20.7702L7.87524 20.0147C8.22009 19.7218 8.58458 19.3969 8.9691 19.0368L9.99545 20.0632C9.32063 20.4235 9.0391 20.5591 8.63055 20.7702ZM12.6449 21.677L12.0586 22.2635C12.1061 21.553 12.0897 21.0354 12.0226 20.636C12.5612 20.3327 13.1462 19.9888 13.7592 19.6041C13.5845 20.3785 13.1918 21.1303 12.6449 21.677ZM11.3289 19.325L10.0157 18.0116C10.9875 16.9424 10.9512 15.912 10.9512 14.7083C10.9512 14.3038 10.6233 13.9759 10.2188 13.9759C9.09422 13.9759 8.01199 13.9156 6.91546 14.9116L5.66138 13.6575C9.08583 7.65263 13.0442 3.85091 17.4915 2.28535C17.8436 3.42461 18.5289 4.52229 19.5028 5.49619C20.4721 6.46569 21.5647 7.14929 22.699 7.50272C21.1243 11.9257 17.3235 15.8815 11.3289 19.325Z" fill="#1FC844"/>
<path d="M18.4668 6.53157C17.0388 5.10373 14.7153 5.10373 13.2874 6.53157C11.8596 7.95961 11.8596 10.2831 13.2874 11.711C14.7153 13.1388 17.0388 13.139 18.4668 11.711C19.8947 10.2831 19.8947 7.95961 18.4668 6.53157ZM17.431 10.6751C16.5742 11.5319 15.1799 11.5319 14.3233 10.6751C13.4665 9.81832 13.4665 8.42424 14.3233 7.56746C15.1799 6.71087 16.574 6.71067 17.431 7.56746C18.2877 8.42424 18.2877 9.81832 17.431 10.6751Z" fill="#1FC844"/>
</g>
<defs>
<clipPath id="clip0">
<rect width="25" height="25" fill="white"/>
</clipPath>
</defs>
</svg>
