<svg width="100" height="100" viewBox="0 0 100 100" fill="none" xmlns="http://www.w3.org/2000/svg">
<path d="M49.9999 29.9258C38.9959 29.9258 30.043 38.9315 30.043 50.0003C30.043 61.0692 38.9959 70.0749 49.9999 70.0749C61.0044 70.0749 69.9574 61.0692 69.9574 50.0003C69.9574 38.9315 61.0044 29.9258 49.9999 29.9258ZM49.9999 61.0997C43.9152 61.0997 38.9656 56.1202 38.9656 50.0003C38.9656 43.8804 43.9152 38.901 49.9999 38.901C56.0845 38.901 61.0348 43.8804 61.0348 50.0003C61.0348 56.1202 56.0839 61.0997 49.9999 61.0997Z" fill="black"/>
<path d="M93.1192 44.5009L92.8004 44.3579C91.638 43.8367 91.3347 42.8052 91.2579 42.3863C91.1812 41.9669 91.1009 40.8941 92.0045 39.9911L92.2513 39.744C95.6496 36.349 96.6323 31.4862 94.8163 27.0549C93.0074 22.6409 88.8328 19.7879 84.1817 19.7879C83.3513 19.7879 82.5066 19.8783 81.6727 20.0566L81.3289 20.1302C80.3438 20.3396 79.3724 19.9938 78.73 19.2339C78.4332 18.8838 77.9621 18.1371 78.134 17.0673L78.1893 16.7208C78.7449 13.2695 77.8401 9.93915 75.6428 7.34292C73.4294 4.72754 70.0733 3.16645 66.6637 3.16645C63.4009 3.16645 60.3685 4.54565 58.1247 7.05033L57.8915 7.31121C57.2324 8.04717 56.4538 8.20155 55.9173 8.20155C55.5288 8.20155 54.2059 8.09504 53.5159 6.72124L53.3588 6.4095C51.3423 2.39578 47.4955 0 43.0675 0C36.9847 0 32.1099 4.39426 31.4764 10.4418L31.439 10.7984C31.2748 12.3672 29.9423 13.2133 28.7735 13.2133C28.3571 13.2133 27.9478 13.111 27.5588 12.9099L27.2465 12.7484C25.5453 11.8694 23.7483 11.4236 21.9078 11.4236C17.8094 11.4236 13.9602 13.6932 11.8616 17.3479C9.78914 20.9577 9.80401 25.2963 11.9014 28.954L12.0769 29.2598C12.7122 30.3685 12.3553 31.3821 12.1721 31.7669C11.9889 32.1516 11.4273 33.0665 10.1687 33.2627L9.82424 33.3166C4.69731 34.116 0.790986 38.1285 0.105135 43.3012C-0.581312 48.4739 2.14127 53.3756 6.88037 55.5003L7.19921 55.6433C8.36152 56.1645 8.66489 57.196 8.74163 57.6149C8.81836 58.0343 8.89867 59.1072 7.9951 60.0101L7.74765 60.2572C4.34932 63.6528 3.36665 68.5156 5.18389 72.9475C6.99339 77.3615 11.168 80.2132 15.8184 80.2126C16.6494 80.2126 17.4941 80.1223 18.3287 79.944L18.6707 79.871C19.6516 79.6604 20.6271 80.0068 21.2696 80.7667C21.5664 81.1168 22.0375 81.8641 21.8656 82.9333L21.8103 83.2798C21.2547 86.731 22.16 90.0614 24.3574 92.6583C26.5708 95.2731 29.9269 96.8341 33.3365 96.8341C36.5998 96.8341 39.6317 95.455 41.8749 92.9503L42.108 92.6894C42.7671 91.9534 43.5458 91.799 44.0823 91.799C44.4707 91.799 45.7937 91.9056 46.4831 93.2788L46.6407 93.5905C48.6572 97.6042 52.5041 100 56.9326 100C63.0149 99.9994 67.8896 95.6051 68.5243 89.5511L68.5612 89.2022C68.7254 87.6334 70.0578 86.7873 71.2267 86.7873C71.6431 86.7873 72.0523 86.8896 72.4413 87.0907L72.7536 87.2522C74.4549 88.1312 76.2519 88.577 78.0923 88.577C82.1908 88.577 86.04 86.3074 88.1386 82.6527C90.211 79.0429 90.1961 74.7043 88.0987 71.0466L87.9233 70.7408C87.288 69.6321 87.6449 68.6185 87.8281 68.2337C88.0113 67.849 88.5728 66.9341 89.8309 66.7379L90.1759 66.684C95.3029 65.8846 99.2086 61.8721 99.895 56.6994C100.581 51.5273 97.8583 46.625 93.1192 44.5009ZM91.0503 55.5123C90.9706 56.1118 90.5929 57.5365 88.8078 57.8153L88.4622 57.8692C84.6802 58.4591 81.4353 60.8842 79.7805 64.3559C78.1268 67.8281 78.2809 71.8914 80.1933 75.226L80.3688 75.5318C80.8839 76.4305 80.8988 77.3167 80.411 78.1645C79.9096 79.0381 78.9989 79.6023 78.0917 79.6023C77.6825 79.6023 77.2584 79.4899 76.8313 79.2697L76.519 79.1081C74.8552 78.2483 73.0742 77.8121 71.2267 77.8121C65.2723 77.8121 60.3113 82.3045 59.6874 88.2622L59.6505 88.6111C59.4506 90.5168 57.8475 91.0248 56.9321 91.0254C56.2093 91.0254 55.2195 90.7681 54.6033 89.5409L54.4456 89.2291C52.4606 85.2783 48.4895 82.8244 44.0823 82.8244C40.8113 82.8244 37.6753 84.2306 35.4785 86.6832L35.2448 86.9441C34.7005 87.5514 34.0586 87.8595 33.3353 87.8595C32.5198 87.8595 31.6829 87.4694 31.1505 86.8405C30.6627 86.2637 30.4831 85.5481 30.6175 84.7122L30.6728 84.3664C31.2171 80.9845 30.2653 77.5524 28.0632 74.9496C25.8498 72.3336 22.6371 70.8336 19.2495 70.8336C18.4387 70.8336 17.6202 70.9203 16.8178 71.092L16.4757 71.165C16.2485 71.2135 16.0266 71.238 15.8167 71.238C14.5758 71.238 13.7716 70.3537 13.4319 69.5268C13.1821 68.9177 12.9287 67.7311 14.0363 66.6236L14.2838 66.3765C16.9986 63.663 18.2079 59.7821 17.5173 55.9951C16.8261 52.2082 14.3266 49.0124 10.8301 47.4448L10.5113 47.3018C8.86298 46.5628 8.86952 45.0885 8.94923 44.4889C9.02894 43.8894 9.40666 42.4641 11.1924 42.1859L11.5368 42.132C15.3188 41.5421 18.5636 39.117 20.2185 35.6453C21.8721 32.1731 21.7181 28.1098 19.8057 24.7752L19.6296 24.47C19.1145 23.5713 19.0996 22.6851 19.5874 21.8373C20.0888 20.9637 20.9995 20.3995 21.9066 20.3995C22.3159 20.3995 22.74 20.5119 23.1671 20.7321L23.4794 20.8937C25.1432 21.7535 26.9241 22.1897 28.7717 22.1897C34.7261 22.1897 39.687 17.6973 40.3104 11.7468L40.3479 11.3901C40.5472 9.485 42.1503 8.97641 43.0657 8.97641C43.7879 8.97641 44.7783 9.2337 45.3951 10.4609L45.5522 10.7726C47.5371 14.7235 51.5083 17.1774 55.9155 17.1774C59.1865 17.1774 62.3225 15.7712 64.5192 13.3186L64.753 13.0577C65.2973 12.4498 65.9397 12.1417 66.6625 12.1417C67.478 12.1417 68.3149 12.5318 68.8473 13.1606C69.3351 13.7375 69.5147 14.4531 69.3803 15.289L69.325 15.6348C68.7807 19.0161 69.7324 22.4488 71.9345 25.051C74.1485 27.667 77.3607 29.167 80.7483 29.167C81.5591 29.167 82.3776 29.0803 83.1788 28.9092L83.5226 28.8356C83.7505 28.7871 83.9717 28.7626 84.1805 28.7626C85.422 28.7626 86.2268 29.6469 86.5664 30.4744C86.8157 31.0835 87.0691 32.2695 85.9615 33.377L85.714 33.6241C82.9992 36.3376 81.7899 40.2185 82.4805 44.0055C83.1717 47.7924 85.6712 50.9882 89.1677 52.5558L89.4865 52.6988C91.1372 53.4384 91.13 54.9127 91.0503 55.5123Z" fill="black"/>
</svg>
